<?xml version="1.0" encoding="UTF-8"?>
<svg version="1.1" xmlns="http://www.w3.org/2000/svg" width="512" height="512">
<path d="M0 0 C1.12249909 -0.00445784 2.24499817 -0.00891569 3.40151238 -0.01350862 C4.62464253 -0.01332426 5.84777268 -0.01313989 7.10796738 -0.01294994 C8.4152976 -0.01662663 9.72262783 -0.02030332 11.06957412 -0.02409142 C14.69257529 -0.03407949 18.3155599 -0.03782308 21.93857288 -0.04048073 C25.8488758 -0.04439344 29.75916571 -0.05397127 33.6694603 -0.0626936 C43.11169539 -0.08243358 52.55393152 -0.09252234 61.99618208 -0.10142139 C66.44884728 -0.10580944 70.9015113 -0.11117501 75.35417557 -0.11641026 C90.16749067 -0.13342215 104.98080505 -0.14791369 119.79412842 -0.155159 C123.63618852 -0.15706873 127.47824861 -0.15898908 131.32030869 -0.16094494 C132.27517204 -0.16142868 133.2300354 -0.16191242 134.21383402 -0.16241082 C149.66279433 -0.17070125 165.11167697 -0.19602164 180.56060341 -0.22852562 C196.4420761 -0.26166555 212.32350942 -0.27961412 228.20501685 -0.28280324 C237.11351447 -0.28496222 246.02189891 -0.29362056 254.9303627 -0.31926441 C262.52158826 -0.34106659 270.11267315 -0.34897547 277.70392647 -0.33929763 C281.57051691 -0.33477993 285.43681769 -0.33648955 289.30336761 -0.35605907 C325.45966155 -0.52885815 354.92476814 7.66663592 381.53319931 32.94672108 C401.65840935 53.96126118 411.44428297 81.15576879 411.4236412 109.97881031 C411.42809789 111.924828 411.42809789 111.924828 411.43264461 113.91015917 C411.44068345 117.50055994 411.44250244 121.09094069 411.44324207 124.6813494 C411.44509813 128.55819297 411.45264833 132.43502629 411.45937729 136.3118639 C411.47294005 144.78539252 411.47898242 153.25891639 411.48338795 161.73245406 C411.48615445 167.02877226 411.4903926 172.32508864 411.49489212 177.6214056 C411.50708323 192.30008644 411.51738212 206.97876584 411.52076721 221.65745163 C411.52098678 222.59634878 411.52120634 223.53524593 411.52143256 224.5025945 C411.52165084 225.44367886 411.52186912 226.38476322 411.52209401 227.35436529 C411.52253747 229.2612085 411.52298403 231.1680517 411.52343369 233.07489491 C411.52365512 234.02074554 411.52387654 234.96659617 411.52410468 235.94110895 C411.52804902 251.25231135 411.54549261 266.56346606 411.56879321 281.87465005 C411.59255059 297.61376353 411.60497109 313.35285312 411.60613513 329.09198481 C411.60704955 337.92101551 411.61274267 346.74998409 411.63095474 355.57899761 C411.6464152 363.10033949 411.65144141 370.62160005 411.64321664 378.14295482 C411.63933076 381.97482613 411.64013767 385.806534 411.65427399 389.63838482 C411.7168097 407.62267143 411.69617965 424.67721669 405.15819931 441.69672108 C404.85962021 442.48627186 404.56104111 443.27582264 404.25341415 444.0892992 C399.36870404 456.49221533 392.18934131 467.24019643 383.28319931 477.13422108 C382.54843369 477.96308826 381.81366806 478.79195545 381.05663681 479.64593983 C364.35885376 497.43270873 338.17293043 511.11307367 313.49749893 512.26417291 C312.53300121 512.26650355 311.56850348 512.2688342 310.57477856 512.27123547 C309.45412957 512.27631001 308.33348058 512.28138455 307.17887253 512.28661287 C305.95778874 512.28711063 304.73670495 512.28760838 303.47861862 512.28812122 C302.17340509 512.29250348 300.86819157 512.29688573 299.52342612 512.30140078 C295.90621919 512.3133275 292.28902559 512.31900569 288.67180288 512.32358193 C284.7675759 512.32955325 280.86336471 512.34115961 276.95914841 512.35187244 C267.53024916 512.37636715 258.10134471 512.39102223 248.67242345 512.40393251 C246.00597775 512.40764752 243.33953255 512.41162053 240.67308736 512.41568518 C224.0912991 512.44093215 207.50950995 512.46297096 190.92770672 512.47541332 C187.08876607 512.47834272 183.24982544 512.48130442 179.41088486 512.48431873 C178.45680843 512.48506478 177.502732 512.48581083 176.51974417 512.48657949 C161.09219069 512.49921119 145.66475303 512.53240592 130.2372536 512.57412057 C114.37271741 512.6166625 98.50824029 512.64012272 82.64364725 512.64533389 C73.74676113 512.64873486 64.85005577 512.66033338 55.95322609 512.69343662 C48.36975296 512.72160774 40.78649765 512.73236257 33.20297628 512.72124116 C29.34202578 512.71609707 25.48153014 512.71865907 21.62064743 512.7437067 C-14.65311812 512.96602506 -43.96045421 504.96855626 -70.77930069 479.44672108 C-91.4384088 458.13384373 -100.86848935 430.59100902 -100.86397171 401.27222157 C-100.8676484 399.98501138 -100.87132509 398.6978012 -100.87511319 397.37158465 C-100.88507498 393.81397123 -100.88884054 390.25637468 -100.8915025 386.6987493 C-100.89542302 382.85524682 -100.90500014 379.01175747 -100.91371536 375.16826344 C-100.93343193 365.89296505 -100.94354045 356.61766565 -100.95244315 347.34235156 C-100.95683446 342.96565946 -100.96219912 338.58896856 -100.96743202 334.21227741 C-100.98444047 319.64765773 -100.99893183 305.08303877 -101.00618076 290.51841068 C-101.00809041 286.74304929 -101.01001077 282.96768791 -101.01196671 279.19232655 C-101.01245045 278.25407188 -101.01293419 277.31581722 -101.01343258 276.3491306 C-101.02172248 261.17000875 -101.04704351 245.99096596 -101.07954738 230.81187859 C-101.11270474 215.19927586 -101.13063739 199.58671318 -101.133825 183.97407508 C-101.13598223 175.21980268 -101.14461457 166.46564555 -101.17028618 157.71140766 C-101.19211219 150.2516732 -101.19998568 142.79208201 -101.1903194 135.33231923 C-101.18580868 131.53432411 -101.18746947 127.73662384 -101.20708084 123.93867016 C-101.3088865 103.05258078 -100.47990327 83.39771771 -91.71680069 64.13422108 C-91.26433975 63.12101795 -90.81187881 62.10781483 -90.34570694 61.06390858 C-78.44019562 35.83325857 -55.77257062 15.86907411 -29.71680069 6.13422108 C-20.09545521 2.95344357 -10.19545903 0.0188747 0 0 Z " fill="#9A1B16" transform="translate(100.71680068969727,-0.13422107696533203)"/>
<path d="M0 0 C1.03202545 -0.00549866 2.0640509 -0.01099731 3.12734985 -0.0166626 C4.25375885 -0.00228149 5.38016785 0.01209961 6.54071045 0.0269165 C7.73123016 0.0263324 8.92174988 0.02574829 10.14834595 0.02514648 C13.40861065 0.0274548 16.6681875 0.04750637 19.92831516 0.07544231 C23.3369046 0.10045752 26.74550774 0.10279804 30.1541748 0.10754395 C36.60696106 0.11997345 43.05947606 0.15279444 49.5121429 0.1929419 C56.85909499 0.23766062 64.20606009 0.25964686 71.55311441 0.27972364 C86.66469077 0.32152731 101.77601332 0.3918786 116.88739014 0.48101807 C116.89673584 1.37820557 116.90608154 2.27539307 116.91571045 3.19976807 C116.96000265 6.56250146 117.02173675 9.92401154 117.09490967 13.28619385 C117.1229505 14.73497023 117.14424825 16.18389479 117.15838623 17.63287354 C117.15216236 29.18267247 117.15216236 29.18267247 121.88739014 39.48101807 C126.51666796 43.29134253 130.29115624 44.08062835 136.12957764 44.09039307 C136.89794952 44.10692932 137.66632141 44.12346558 138.45797729 44.14050293 C140.89286453 44.18877742 143.32712825 44.21030678 145.76239014 44.23101807 C147.42127533 44.25919515 149.08013173 44.28912501 150.73895264 44.32086182 C154.7883804 44.39453004 158.83746622 44.44422941 162.88739014 44.48101807 C163.00411507 67.35942289 163.09232518 90.23777872 163.146451 113.11642075 C163.1722489 123.73903091 163.20742978 134.36145623 163.2645874 144.98394775 C163.31437375 154.24092106 163.3466696 163.49776051 163.35783261 172.75486398 C163.36435945 177.65794963 163.37973226 182.56065233 163.41604042 187.46361542 C163.4499246 192.07653099 163.46045849 196.68890509 163.45292854 201.30193329 C163.45430649 202.99669332 163.46428427 204.69147107 163.48341751 206.38612366 C163.50823875 208.69753804 163.50233746 211.00689907 163.48866272 213.31835938 C163.49557617 215.2596554 163.49557617 215.2596554 163.50262928 217.24016953 C162.88739014 220.48101807 162.88739014 220.48101807 160.77246475 222.89693832 C157.29106278 224.80843771 155.08814441 224.98393932 151.12492371 224.98895264 C150.45785481 224.9951926 149.79078591 225.00143256 149.10350281 225.00786161 C146.87542193 225.02377593 144.64843748 225.0111948 142.42034912 224.99859619 C140.8202043 225.004018 139.22006447 225.01114099 137.61993408 225.01983643 C133.27906632 225.03806441 128.93857902 225.03100491 124.59770465 225.01832008 C120.05518238 225.00819142 115.51269262 225.01758523 110.97016907 225.02386475 C103.3429886 225.0311408 95.71596309 225.02155379 88.08880615 225.00250244 C79.26874109 224.98072594 70.44904577 224.98779081 61.62898964 225.00980806 C54.05688225 225.02795397 46.48488623 225.0305246 38.91276413 225.02005339 C34.38992091 225.01381499 29.86725156 225.01299245 25.34441948 225.02619934 C21.09336642 225.03774577 16.84279068 225.02975454 12.59178925 225.00662231 C11.03090521 225.00132905 9.46998106 225.00285959 7.90911293 225.01167297 C5.77982229 225.02258842 3.65206554 225.00891643 1.52287292 224.98895264 C0.33103614 224.98744453 -0.86080065 224.98593643 -2.0887537 224.98438263 C-5.11260986 224.48101807 -5.11260986 224.48101807 -7.49558163 222.99016571 C-9.82270311 219.3791642 -9.66546334 215.98523326 -9.62054443 211.82672119 C-9.6267844 210.94407845 -9.63302436 210.0614357 -9.63945341 209.1520462 C-9.65543382 206.1885167 -9.64275939 203.22580396 -9.63018799 200.26226807 C-9.63560686 198.14011148 -9.64272819 196.01795866 -9.65142822 193.89581299 C-9.66969237 188.12727672 -9.66258118 182.359026 -9.64991188 176.59048462 C-9.63980027 170.55984719 -9.64917244 164.52923456 -9.65545654 158.49859619 C-9.6627383 148.37029622 -9.65313133 138.24211284 -9.63409424 128.11383057 C-9.61232457 116.39625963 -9.61937556 104.67896708 -9.64139986 92.96140289 C-9.65953875 82.90951399 -9.66211956 72.857709 -9.65164518 62.80580902 C-9.64540196 56.79849178 -9.64459744 50.79130547 -9.65779114 44.78399658 C-9.66932696 39.13686054 -9.66136518 33.49008416 -9.63821411 27.84298706 C-9.63291491 25.76769611 -9.63446138 23.692375 -9.64326477 21.61709595 C-9.65415594 18.78942387 -9.64053452 15.96291256 -9.62054443 13.13531494 C-9.62946732 12.30924995 -9.63839021 11.48318497 -9.64758348 10.63208771 C-9.59930805 7.12441732 -9.40026317 4.90284101 -7.40040207 1.97018814 C-4.68414128 0.20211923 -3.22435675 -0.01326896 0 0 Z " fill="#F9FAF9" transform="translate(179.11260986328125,143.51898193359375)"/>
<path d="M0 0 C2.69319245 1.11668955 4.32096992 2.63254623 6.39453125 4.67578125 C7.11253906 5.36285156 7.83054688 6.04992187 8.5703125 6.7578125 C10.08203125 8.86328125 10.08203125 8.86328125 10.1171875 10.83203125 C8.64369629 13.72341023 6.64074919 15.41007468 4.20703125 17.55078125 C3.71960449 17.98285889 3.23217773 18.41493652 2.72998047 18.86010742 C-1.54548255 22.61947175 -5.95512269 26.21373356 -10.41015625 29.7578125 C-13.07006445 31.99097531 -15.49594843 34.37615286 -17.91796875 36.86328125 C-16.36005973 41.04042481 -13.28011506 43.33387108 -9.91796875 46.05078125 C-8.74234243 47.02074671 -7.56787713 47.99212094 -6.39453125 48.96484375 C-5.80961914 49.44856445 -5.22470703 49.93228516 -4.62207031 50.43066406 C-1.30717499 53.21745572 1.8699126 56.15680016 5.05859375 59.0859375 C7.16003916 61.01087131 7.16003916 61.01087131 10.08203125 62.86328125 C9.50705495 66.60908273 7.94566063 68.48845931 5.33203125 71.17578125 C4.6565625 71.89378906 3.98109375 72.61179687 3.28515625 73.3515625 C1.08203125 74.86328125 1.08203125 74.86328125 -1.3515625 74.8828125 C-4.67667975 73.56187551 -6.64906095 71.71135211 -9.23046875 69.23828125 C-10.20912759 68.31586717 -11.18829622 67.39399366 -12.16796875 66.47265625 C-13.07546875 65.6115625 -13.98296875 64.75046875 -14.91796875 63.86328125 C-20.60291065 58.75571626 -26.44904501 53.82605154 -32.2590332 48.86181641 C-37.88933845 44.04775484 -37.88933845 44.04775484 -38.296875 41.421875 C-38.77751257 33.25103635 -38.77751257 33.25103635 -36.51953125 29.60546875 C-34.431506 27.50039839 -32.26073086 25.68087729 -29.91796875 23.86328125 C-28.2090104 22.46821321 -26.50071236 21.07233602 -24.79296875 19.67578125 C-23.87257812 18.9384375 -22.9521875 18.20109375 -22.00390625 17.44140625 C-17.68436365 13.90284604 -13.65268714 10.04308834 -9.60107422 6.2043457 C-9.03533691 5.670271 -8.46959961 5.13619629 -7.88671875 4.5859375 C-7.38591797 4.10906494 -6.88511719 3.63219238 -6.36914062 3.14086914 C-2.59168231 -0.18474314 -2.59168231 -0.18474314 0 0 Z " fill="#F3F2F2" transform="translate(151.91796875,223.13671875)"/>
<path d="M0 0 C1.70378484 1.62870279 3.36443325 3.3028032 5 5 C10.39949269 10.07989655 15.90901983 14.97971274 21.6875 19.625 C23.45855367 21.08306574 25.22939761 22.54138628 27 24 C27.8146875 24.63292969 28.629375 25.26585937 29.46875 25.91796875 C32.70847725 28.68428516 34.65694505 30.7131086 35.76953125 34.88671875 C36.08966173 39.21119325 35.94687593 42.51872286 33.57421875 46.23046875 C31.50939483 48.37224263 29.35011611 50.17586226 27 52 C25.27050131 53.41626131 23.5413522 54.83294959 21.8125 56.25 C20.88824219 56.98863281 19.96398437 57.72726562 19.01171875 58.48828125 C15.01109413 61.82472954 11.23719056 65.38349563 7.50317383 69.01464844 C4.51421454 71.85699368 1.96129811 73.77945243 -2 75 C-2.721875 74.2575 -3.44375 73.515 -4.1875 72.75 C-6.68592573 70.30709485 -9.23643202 68.1318953 -12 66 C-10.43663535 62.03145897 -7.67861607 59.58466741 -4.5625 56.8125 C-3.76875977 56.09392822 -3.76875977 56.09392822 -2.95898438 55.36083984 C1.43193087 51.42024141 5.97887659 47.70701029 10.625 44.0703125 C13.10116544 41.91181302 15.02817522 39.61997089 17 37 C9.54804644 30.04224231 1.951526 23.38939045 -6 17 C-8.00746716 15.34199521 -10.00425638 13.67210952 -12 12 C-10.53033642 8.60140297 -8.61962486 6.35036291 -6 3.75 C-5.29875 3.04359375 -4.5975 2.3371875 -3.875 1.609375 C-2 0 -2 0 0 0 Z " fill="#F3F4F4" transform="translate(362,223)"/>
<path d="M0 0 C2.98435256 1.34227101 5.07879551 2.82658283 7.39160156 5.1328125 C8.0319635 5.76687012 8.67232544 6.40092773 9.33209229 7.05419922 C10.35106598 8.07924561 10.35106598 8.07924561 11.390625 9.125 C12.09523865 9.8277002 12.79985229 10.53040039 13.52581787 11.25439453 C15.01088353 12.73810104 16.49343381 14.22432892 17.97363281 15.71289062 C20.24844325 17.99843591 22.5337536 20.27309017 24.8203125 22.546875 C26.26105868 23.98894219 27.70118465 25.43162935 29.140625 26.875 C29.82803772 27.55836426 30.51545044 28.24172852 31.22369385 28.94580078 C31.85144714 29.5798584 32.47920044 30.21391602 33.12597656 30.8671875 C33.96059418 31.70419189 33.96059418 31.70419189 34.81207275 32.55810547 C36 34 36 34 36 36 C31.96166211 36.0992502 27.92380128 36.17164562 23.88452148 36.21972656 C22.51199977 36.2397799 21.13956283 36.26703028 19.76733398 36.30175781 C17.78927956 36.35054552 15.81058881 36.37088876 13.83203125 36.390625 C12.64327393 36.41157227 11.4545166 36.43251953 10.22973633 36.45410156 C6.33873045 35.90702537 4.77281593 34.72877364 2 32 C-0.42204038 28.36693942 -0.23302891 26.68180977 -0.1953125 22.36328125 C-0.18886719 21.06455078 -0.18242187 19.76582031 -0.17578125 18.42773438 C-0.1590706 17.05598693 -0.14214071 15.68424214 -0.125 14.3125 C-0.11496674 12.92904282 -0.10584149 11.54557873 -0.09765625 10.16210938 C-0.07404967 6.77456548 -0.04112037 3.38736928 0 0 Z " fill="#F3EEED" transform="translate(303,145)"/>
<path d="M0 0 C25.61969676 -1.65288366 51.18234843 11.58234901 70 28 C89.97162668 45.69889534 101.93255702 70.59469191 105 97 C105.06056151 98.64485066 105.08781955 100.29172957 105.0625 101.9375 C105.05347656 102.70964844 105.04445313 103.48179688 105.03515625 104.27734375 C105.02355469 104.84582031 105.01195312 105.41429688 105 106 C104.67 106 104.34 106 104 106 C103.89453857 105.35562988 103.78907715 104.71125977 103.68041992 104.04736328 C103.18951268 101.07208719 102.68856313 98.09858192 102.1875 95.125 C102.02185547 94.11179687 101.85621094 93.09859375 101.68554688 92.0546875 C100.09042266 82.66452229 97.64086957 73.84981087 93.8125 65.125 C93.51786865 64.44808105 93.2232373 63.77116211 92.91967773 63.07373047 C90.34232739 57.35929198 87.16350983 52.35486948 83.50390625 47.2578125 C82 45 82 45 82 43 C80.515 42.505 80.515 42.505 79 42 C77.98648336 40.34151823 76.98879205 38.67334039 76 37 C57.24077426 17.29956743 33.18036298 5.1585561 6.01416016 2.68261719 C4.3353927 2.51815617 2.66553935 2.26699486 1 2 C0.67 1.34 0.34 0.68 0 0 Z " fill="#E2504A" transform="translate(407,0)"/>
<path d="M0 0 C2.80178062 3.2334275 3.74124175 6.10448769 4.6875 10.25 C4.93886719 11.32765625 5.19023437 12.4053125 5.44921875 13.515625 C5.72185547 14.74539063 5.72185547 14.74539063 6 16 C6.66 16 7.32 16 8 16 C10 21 12 26 14 31 C14.66 31 15.32 31 16 31 C16 31.99 16 32.98 16 34 C16.66 34 17.32 34 18 34 C19.0078125 35.50390625 19.0078125 35.50390625 20.125 37.5625 C22.56161009 41.64994947 25.41395996 44.31831928 29.0625 47.32421875 C31.74166189 49.64147772 33.82417131 52.21221949 36 55 C28.74416121 54.10567568 22.76972161 45.26585922 18.375 39.82421875 C10.3299989 29.36384857 0 13.50224553 0 0 Z " fill="#603F3F" transform="translate(4,431)"/>
<path d="M0 0 C6.79616086 -0.43846199 12.83042566 0.40910903 19.4375 1.875 C20.23075684 2.04870117 21.02401367 2.22240234 21.84130859 2.40136719 C25.48955532 3.24681653 27.82351921 3.88234614 31 6 C24.31939714 5.2812876 17.65754138 4.47034655 11 3.5625 C10.04738281 3.44068359 9.09476562 3.31886719 8.11328125 3.19335938 C6.75783203 3.00676758 6.75783203 3.00676758 5.375 2.81640625 C4.14910156 2.65313843 4.14910156 2.65313843 2.8984375 2.48657227 C1.95871094 2.24571899 1.95871094 2.24571899 1 2 C0.67 1.34 0.34 0.68 0 0 Z " fill="#E15C56" transform="translate(407,0)"/>
<path d="M0 0 C5.66666667 5.66666667 11.33333333 11.33333333 17 17 C16.01 17.33 15.02 17.66 14 18 C12.03856399 16.06555623 10.08079606 14.12763179 8.125 12.1875 C7.56941406 11.64029297 7.01382812 11.09308594 6.44140625 10.52929688 C5.90644531 9.99755859 5.37148438 9.46582031 4.8203125 8.91796875 C4.32805176 8.43094482 3.83579102 7.9439209 3.32861328 7.44213867 C0.98377821 4.89694558 0 3.50384851 0 0 Z " fill="#523233" transform="translate(23,468)"/>
<path d="M0 0 C0.99 0.33 1.98 0.66 3 1 C1.41984377 2.60729631 -0.16425652 4.21071576 -1.75 5.8125 C-2.63171875 6.70582031 -3.5134375 7.59914063 -4.421875 8.51953125 C-6.53448851 10.55212152 -8.60794665 12.31773818 -11 14 C-11.66 13.67 -12.32 13.34 -13 13 C-8.66666667 8.66666667 -4.33333333 4.33333333 0 0 Z " fill="#533332" transform="translate(481,476)"/>
<path d="M0 0 C-2.24743045 0.53181175 -4.49807102 1.05007126 -6.75 1.5625 C-8.62945312 1.99755859 -8.62945312 1.99755859 -10.546875 2.44140625 C-13.59473748 2.93444283 -15.17641828 3.07666879 -18 2 C-14.88551362 0.59345777 -11.74249204 -0.41011753 -8.4375 -1.25 C-7.69371094 -1.44078125 -6.94992187 -1.6315625 -6.18359375 -1.828125 C-3.53726861 -2.03642251 -2.23763909 -1.35983509 0 0 Z " fill="#4F3C3F" transform="translate(431,509)"/>
<path d="M0 0 C1.90318884 2.85478326 2.4619099 4.41941308 3.125 7.6875 C3.29257812 8.49574219 3.46015625 9.30398438 3.6328125 10.13671875 C3.75398437 10.75160156 3.87515625 11.36648438 4 12 C2.68 12 1.36 12 0 12 C0 8.04 0 4.08 0 0 Z " fill="#FFFFFF" transform="translate(0,500)"/>
<path d="M0 0 C2.64404244 3.15309659 3.9568165 6.16847356 5.25 10.0625 C5.60578125 11.10535156 5.9615625 12.14820313 6.328125 13.22265625 C7 16 7 16 6 19 C0.44419134 6.51480638 0.44419134 6.51480638 0 0 Z " fill="#6D4A49" transform="translate(4,431)"/>
<path d="M0 0 C10.55808656 -0.3690205 10.55808656 -0.3690205 15 2 C11.78062073 2.99808262 9.15698248 3.01849014 5.8125 2.6875 C4.49185547 2.56955078 4.49185547 2.56955078 3.14453125 2.44921875 C2.43683594 2.30097656 1.72914063 2.15273438 1 2 C0.67 1.34 0.34 0.68 0 0 Z " fill="#E24C44" transform="translate(407,0)"/>
<path d="M0 0 C-3.36736031 2.82858266 -6.87451958 4.4998253 -11 6 C-11.99 5.67 -12.98 5.34 -14 5 C-12.34151823 3.98648336 -10.67334039 2.98879205 -9 2 C-8.34 1.608125 -7.68 1.21625 -7 0.8125 C-4.56451887 -0.17691421 -2.60422365 -0.14467909 0 0 Z " fill="#50393B" transform="translate(452,500)"/>
<path d="M0 0 C0.99 0.66 1.98 1.32 3 2 C1.54735962 2.8638129 0.0876837 3.71580454 -1.375 4.5625 C-2.59316406 5.27599609 -2.59316406 5.27599609 -3.8359375 6.00390625 C-4.55007813 6.33261719 -5.26421875 6.66132813 -6 7 C-6.66 6.67 -7.32 6.34 -8 6 C-7.01 5.67 -6.02 5.34 -5 5 C-4.67 4.34 -4.34 3.68 -4 3 C-2.69084721 1.96854629 -1.35917857 0.96457834 0 0 Z " fill="#573E3E" transform="translate(460,493)"/>
<path d="M0 0 C4.27343092 -0.36629408 6.48812804 0.59185923 10 3 C5.82412255 4.39195915 3.86525224 2.82323219 0 1 C0 0.67 0 0.34 0 0 Z " fill="#513E3F" transform="translate(64,502)"/>
</svg>
